<svg xmlns="http://www.w3.org/2000/svg" xmlns:xlink="http://www.w3.org/1999/xlink" width="1602" zoomAndPan="magnify" viewBox="0 0 1201.5 1210.500003" height="1614" preserveAspectRatio="xMidYMid meet" version="1.0"><defs><clipPath id="adf6990d00"><path d="M 1052.0625 33.761719 L 1199.09375 33.761719 L 1199.09375 149.574219 L 1052.0625 149.574219 Z M 1052.0625 33.761719 " clip-rule="nonzero"/></clipPath><clipPath id="1859e01ec2"><path d="M 1189.347656 149.574219 L 1061.953125 149.574219 C 1059.367188 149.574219 1056.890625 148.546875 1055.0625 146.722656 C 1053.234375 144.894531 1052.207031 142.414062 1052.207031 139.828125 L 1052.207031 43.507812 C 1052.207031 40.921875 1053.234375 38.445312 1055.0625 36.617188 C 1056.890625 34.789062 1059.367188 33.761719 1061.953125 33.761719 L 1189.347656 33.761719 C 1191.929688 33.761719 1194.410156 34.789062 1196.238281 36.617188 C 1198.066406 38.445312 1199.09375 40.921875 1199.09375 43.507812 L 1199.09375 139.828125 C 1199.09375 142.414062 1198.066406 144.894531 1196.238281 146.722656 C 1194.410156 148.546875 1191.929688 149.574219 1189.347656 149.574219 Z M 1189.347656 149.574219 " clip-rule="nonzero"/></clipPath><clipPath id="5bc2ee37d5"><path d="M 0.203125 0.761719 L 147.09375 0.761719 L 147.09375 116.574219 L 0.203125 116.574219 Z M 0.203125 0.761719 " clip-rule="nonzero"/></clipPath><clipPath id="a469b79def"><path d="M 137.347656 116.574219 L 9.953125 116.574219 C 7.367188 116.574219 4.890625 115.546875 3.0625 113.722656 C 1.234375 111.894531 0.207031 109.414062 0.207031 106.828125 L 0.207031 10.507812 C 0.207031 7.921875 1.234375 5.445312 3.0625 3.617188 C 4.890625 1.789062 7.367188 0.761719 9.953125 0.761719 L 137.347656 0.761719 C 139.929688 0.761719 142.410156 1.789062 144.238281 3.617188 C 146.066406 5.445312 147.09375 7.921875 147.09375 10.507812 L 147.09375 106.828125 C 147.09375 109.414062 146.066406 111.894531 144.238281 113.722656 C 142.410156 115.546875 139.929688 116.574219 137.347656 116.574219 Z M 137.347656 116.574219 " clip-rule="nonzero"/></clipPath><clipPath id="0698f707ab"><rect x="0" width="148" y="0" height="117"/></clipPath><clipPath id="d60fd6a218"><path d="M 0 0 L 1200.800781 0 L 1200.800781 1210 L 0 1210 Z M 0 0 " clip-rule="nonzero"/></clipPath><clipPath id="a6ad5f9f67"><path d="M 18.742188 0 L 1182.058594 0 C 1187.03125 0 1191.796875 1.976562 1195.3125 5.492188 C 1198.828125 9.007812 1200.800781 13.773438 1200.800781 18.742188 L 1200.800781 1190.894531 C 1200.800781 1195.863281 1198.828125 1200.632812 1195.3125 1204.148438 C 1191.796875 1207.660156 1187.03125 1209.636719 1182.058594 1209.636719 L 18.742188 1209.636719 C 13.769531 1209.636719 9.003906 1207.660156 5.488281 1204.148438 C 1.976562 1200.632812 0 1195.863281 0 1190.894531 L 0 18.742188 C 0 13.773438 1.976562 9.007812 5.488281 5.492188 C 9.003906 1.976562 13.769531 0 18.742188 0 Z M 18.742188 0 " clip-rule="nonzero"/></clipPath><clipPath id="68fe8b64ba"><path d="M 0 0 L 1200.800781 0 L 1200.800781 1209.820312 L 0 1209.820312 Z M 0 0 " clip-rule="nonzero"/></clipPath><clipPath id="7da2555da5"><path d="M 18.742188 0 L 1182.058594 0 C 1187.03125 0 1191.796875 1.976562 1195.3125 5.492188 C 1198.828125 9.007812 1200.800781 13.773438 1200.800781 18.742188 L 1200.800781 1190.894531 C 1200.800781 1195.863281 1198.828125 1200.632812 1195.3125 1204.148438 C 1191.796875 1207.660156 1187.03125 1209.636719 1182.058594 1209.636719 L 18.742188 1209.636719 C 13.769531 1209.636719 9.003906 1207.660156 5.488281 1204.148438 C 1.976562 1200.632812 0 1195.863281 0 1190.894531 L 0 18.742188 C 0 13.773438 1.976562 9.007812 5.488281 5.492188 C 9.003906 1.976562 13.769531 0 18.742188 0 Z M 18.742188 0 " clip-rule="nonzero"/></clipPath><clipPath id="a5726ab212"><rect x="0" width="1201" y="0" height="1210"/></clipPath><clipPath id="9d16f65e73"><path d="M 119.972656 478.410156 L 267 478.410156 L 267 594.222656 L 119.972656 594.222656 Z M 119.972656 478.410156 " clip-rule="nonzero"/></clipPath><clipPath id="36bed742e5"><path d="M 129.71875 478.410156 L 257.109375 478.410156 C 259.695312 478.410156 262.175781 479.4375 264.003906 481.265625 C 265.832031 483.09375 266.855469 485.570312 266.855469 488.15625 L 266.855469 584.476562 C 266.855469 587.0625 265.832031 589.542969 264.003906 591.371094 C 262.175781 593.195312 259.695312 594.222656 257.109375 594.222656 L 129.71875 594.222656 C 127.132812 594.222656 124.652344 593.195312 122.824219 591.371094 C 120.996094 589.542969 119.972656 587.0625 119.972656 584.476562 L 119.972656 488.15625 C 119.972656 485.570312 120.996094 483.09375 122.824219 481.265625 C 124.652344 479.4375 127.132812 478.410156 129.71875 478.410156 Z M 129.71875 478.410156 " clip-rule="nonzero"/></clipPath><clipPath id="e8498ae8b5"><path d="M 0.972656 0.410156 L 148 0.410156 L 148 116.222656 L 0.972656 116.222656 Z M 0.972656 0.410156 " clip-rule="nonzero"/></clipPath><clipPath id="639ec93a79"><path d="M 10.71875 0.410156 L 138.109375 0.410156 C 140.695312 0.410156 143.175781 1.4375 145.003906 3.265625 C 146.832031 5.09375 147.855469 7.570312 147.855469 10.15625 L 147.855469 106.476562 C 147.855469 109.0625 146.832031 111.542969 145.003906 113.371094 C 143.175781 115.195312 140.695312 116.222656 138.109375 116.222656 L 10.71875 116.222656 C 8.132812 116.222656 5.652344 115.195312 3.824219 113.371094 C 1.996094 111.542969 0.972656 109.0625 0.972656 106.476562 L 0.972656 10.15625 C 0.972656 7.570312 1.996094 5.09375 3.824219 3.265625 C 5.652344 1.4375 8.132812 0.410156 10.71875 0.410156 Z M 10.71875 0.410156 " clip-rule="nonzero"/></clipPath><clipPath id="2ac8b21e17"><rect x="0" width="148" y="0" height="117"/></clipPath><clipPath id="2cf0f03a09"><path d="M 305.839844 362.597656 L 443.496094 362.597656 L 443.496094 594.351562 L 305.839844 594.351562 Z M 305.839844 362.597656 " clip-rule="nonzero"/></clipPath><clipPath id="fdf39fe583"><path d="M 315.585938 362.597656 L 433.75 362.597656 C 436.335938 362.597656 438.8125 363.621094 440.640625 365.449219 C 442.46875 367.277344 443.496094 369.757812 443.496094 372.34375 L 443.496094 584.476562 C 443.496094 587.0625 442.46875 589.542969 440.640625 591.371094 C 438.8125 593.195312 436.335938 594.222656 433.75 594.222656 L 315.585938 594.222656 C 313 594.222656 310.519531 593.195312 308.695312 591.371094 C 306.867188 589.542969 305.839844 587.0625 305.839844 584.476562 L 305.839844 372.34375 C 305.839844 369.757812 306.867188 367.277344 308.695312 365.449219 C 310.519531 363.621094 313 362.597656 315.585938 362.597656 Z M 315.585938 362.597656 " clip-rule="nonzero"/></clipPath><clipPath id="ad66d3dea3"><path d="M 0.839844 0.597656 L 138.496094 0.597656 L 138.496094 232.234375 L 0.839844 232.234375 Z M 0.839844 0.597656 " clip-rule="nonzero"/></clipPath><clipPath id="c11ba99f68"><path d="M 10.585938 0.597656 L 128.75 0.597656 C 131.335938 0.597656 133.8125 1.621094 135.640625 3.449219 C 137.46875 5.277344 138.496094 7.757812 138.496094 10.34375 L 138.496094 222.476562 C 138.496094 225.0625 137.46875 227.542969 135.640625 229.371094 C 133.8125 231.195312 131.335938 232.222656 128.75 232.222656 L 10.585938 232.222656 C 8 232.222656 5.519531 231.195312 3.695312 229.371094 C 1.867188 227.542969 0.839844 225.0625 0.839844 222.476562 L 0.839844 10.34375 C 0.839844 7.757812 1.867188 5.277344 3.695312 3.449219 C 5.519531 1.621094 8 0.597656 10.585938 0.597656 Z M 10.585938 0.597656 " clip-rule="nonzero"/></clipPath><clipPath id="de135425d0"><rect x="0" width="139" y="0" height="233"/></clipPath><clipPath id="358a775019"><path d="M 470.261719 149.953125 L 600.402344 149.953125 L 600.402344 594.257812 L 470.261719 594.257812 Z M 470.261719 149.953125 " clip-rule="nonzero"/></clipPath><clipPath id="af0a42bb3d"><path d="M 480.007812 149.953125 L 590.65625 149.953125 C 593.238281 149.953125 595.71875 150.980469 597.546875 152.808594 C 599.375 154.636719 600.402344 157.117188 600.402344 159.699219 L 600.402344 584.476562 C 600.402344 587.0625 599.375 589.542969 597.546875 591.371094 C 595.71875 593.195312 593.238281 594.222656 590.65625 594.222656 L 480.007812 594.222656 C 477.421875 594.222656 474.941406 593.195312 473.117188 591.371094 C 471.289062 589.542969 470.261719 587.0625 470.261719 584.476562 L 470.261719 159.699219 C 470.261719 157.117188 471.289062 154.636719 473.117188 152.808594 C 474.941406 150.980469 477.421875 149.953125 480.007812 149.953125 Z M 480.007812 149.953125 " clip-rule="nonzero"/></clipPath><clipPath id="6270d0c402"><path d="M 0.261719 0.953125 L 130.402344 0.953125 L 130.402344 445.234375 L 0.261719 445.234375 Z M 0.261719 0.953125 " clip-rule="nonzero"/></clipPath><clipPath id="2ac975e346"><path d="M 10.007812 0.953125 L 120.65625 0.953125 C 123.238281 0.953125 125.71875 1.980469 127.546875 3.808594 C 129.375 5.636719 130.402344 8.117188 130.402344 10.699219 L 130.402344 435.476562 C 130.402344 438.0625 129.375 440.542969 127.546875 442.371094 C 125.71875 444.195312 123.238281 445.222656 120.65625 445.222656 L 10.007812 445.222656 C 7.421875 445.222656 4.941406 444.195312 3.117188 442.371094 C 1.289062 440.542969 0.261719 438.0625 0.261719 435.476562 L 0.261719 10.699219 C 0.261719 8.117188 1.289062 5.636719 3.117188 3.808594 C 4.941406 1.980469 7.421875 0.953125 10.007812 0.953125 Z M 10.007812 0.953125 " clip-rule="nonzero"/></clipPath><clipPath id="7fb212ecce"><rect x="0" width="131" y="0" height="446"/></clipPath><clipPath id="02caf1932e"><path d="M 470.253906 628.515625 L 603.121094 628.515625 L 603.121094 1064.476562 L 470.253906 1064.476562 Z M 470.253906 628.515625 " clip-rule="nonzero"/></clipPath><clipPath id="66ab9e88d1"><path d="M 595.621094 1064.476562 L 477.753906 1064.476562 C 473.613281 1064.476562 470.253906 1061.121094 470.253906 1056.980469 L 470.253906 636.421875 C 470.253906 632.28125 473.613281 628.925781 477.753906 628.925781 L 595.621094 628.925781 C 599.761719 628.925781 603.121094 632.28125 603.121094 636.421875 L 603.121094 1056.980469 C 603.121094 1061.121094 599.761719 1064.476562 595.621094 1064.476562 Z M 595.621094 1064.476562 " clip-rule="nonzero"/></clipPath><clipPath id="6ea37dafe1"><path d="M 0.253906 1 L 133.121094 1 L 133.121094 436.476562 L 0.253906 436.476562 Z M 0.253906 1 " clip-rule="nonzero"/></clipPath><clipPath id="ea49731d7b"><path d="M 125.621094 436.476562 L 7.753906 436.476562 C 3.613281 436.476562 0.253906 433.121094 0.253906 428.980469 L 0.253906 8.421875 C 0.253906 4.28125 3.613281 0.925781 7.753906 0.925781 L 125.621094 0.925781 C 129.761719 0.925781 133.121094 4.28125 133.121094 8.421875 L 133.121094 428.980469 C 133.121094 433.121094 129.761719 436.476562 125.621094 436.476562 Z M 125.621094 436.476562 " clip-rule="nonzero"/></clipPath><clipPath id="75b7347cda"><rect x="0" width="134" y="0" height="437"/></clipPath><clipPath id="d0980f9750"><path d="M 305.832031 628.792969 L 443.488281 628.792969 L 443.488281 860.550781 L 305.832031 860.550781 Z M 305.832031 628.792969 " clip-rule="nonzero"/></clipPath><clipPath id="c6ce4ae213"><path d="M 435.992188 860.550781 L 313.328125 860.550781 C 309.1875 860.550781 305.832031 857.191406 305.832031 853.050781 L 305.832031 636.417969 C 305.832031 632.277344 309.1875 628.921875 313.328125 628.921875 L 435.992188 628.921875 C 440.132812 628.921875 443.488281 632.277344 443.488281 636.417969 L 443.488281 853.050781 C 443.488281 857.191406 440.132812 860.550781 435.992188 860.550781 Z M 435.992188 860.550781 " clip-rule="nonzero"/></clipPath><clipPath id="8fe743df49"><path d="M 0.832031 0.792969 L 138.488281 0.792969 L 138.488281 232.550781 L 0.832031 232.550781 Z M 0.832031 0.792969 " clip-rule="nonzero"/></clipPath><clipPath id="6a196cfcbe"><path d="M 130.992188 232.550781 L 8.328125 232.550781 C 4.1875 232.550781 0.832031 229.191406 0.832031 225.050781 L 0.832031 8.417969 C 0.832031 4.277344 4.1875 0.921875 8.328125 0.921875 L 130.992188 0.921875 C 135.132812 0.921875 138.488281 4.277344 138.488281 8.417969 L 138.488281 225.050781 C 138.488281 229.191406 135.132812 232.550781 130.992188 232.550781 Z M 130.992188 232.550781 " clip-rule="nonzero"/></clipPath><clipPath id="c4990dc067"><rect x="0" width="139" y="0" height="233"/></clipPath><clipPath id="ee9eea125f"><path d="M 119.820312 628.917969 L 266.851562 628.917969 L 266.851562 744.734375 L 119.820312 744.734375 Z M 119.820312 628.917969 " clip-rule="nonzero"/></clipPath><clipPath id="a0c94053f5"><path d="M 259.355469 744.734375 L 127.460938 744.734375 C 123.320312 744.734375 119.964844 741.378906 119.964844 737.238281 L 119.964844 636.417969 C 119.964844 632.277344 123.320312 628.917969 127.460938 628.917969 L 259.355469 628.917969 C 263.496094 628.917969 266.851562 632.277344 266.851562 636.417969 L 266.851562 737.238281 C 266.851562 741.378906 263.496094 744.734375 259.355469 744.734375 Z M 259.355469 744.734375 " clip-rule="nonzero"/></clipPath><clipPath id="e2f0f02ee6"><path d="M 0.949219 0.917969 L 147.851562 0.917969 L 147.851562 116.734375 L 0.949219 116.734375 Z M 0.949219 0.917969 " clip-rule="nonzero"/></clipPath><clipPath id="e913e701ee"><path d="M 140.355469 116.734375 L 8.460938 116.734375 C 4.320312 116.734375 0.964844 113.378906 0.964844 109.238281 L 0.964844 8.417969 C 0.964844 4.277344 4.320312 0.917969 8.460938 0.917969 L 140.355469 0.917969 C 144.496094 0.917969 147.851562 4.277344 147.851562 8.417969 L 147.851562 109.238281 C 147.851562 113.378906 144.496094 116.734375 140.355469 116.734375 Z M 140.355469 116.734375 " clip-rule="nonzero"/></clipPath><clipPath id="a7b0bb7066"><rect x="0" width="148" y="0" height="117"/></clipPath><clipPath id="82a9f7de3c"><path d="M 639.652344 48.179688 L 765.113281 48.179688 L 765.113281 589.722656 L 639.652344 589.722656 Z M 639.652344 48.179688 " clip-rule="nonzero"/></clipPath><clipPath id="71c67312c0"><path d="M 755.367188 589.722656 L 649.398438 589.722656 C 646.8125 589.722656 644.332031 588.695312 642.503906 586.867188 C 640.679688 585.039062 639.652344 582.5625 639.652344 579.976562 L 639.652344 58.242188 C 639.652344 55.660156 640.679688 53.179688 642.503906 51.351562 C 644.332031 49.523438 646.8125 48.496094 649.398438 48.496094 L 755.367188 48.496094 C 757.953125 48.496094 760.429688 49.523438 762.257812 51.351562 C 764.085938 53.179688 765.113281 55.660156 765.113281 58.242188 L 765.113281 579.976562 C 765.113281 582.5625 764.085938 585.039062 762.257812 586.867188 C 760.429688 588.695312 757.953125 589.722656 755.367188 589.722656 Z M 755.367188 589.722656 " clip-rule="nonzero"/></clipPath><clipPath id="0355786ea7"><path d="M 0.652344 0.460938 L 126.113281 0.460938 L 126.113281 541.722656 L 0.652344 541.722656 Z M 0.652344 0.460938 " clip-rule="nonzero"/></clipPath><clipPath id="d7db2d0eb2"><path d="M 116.367188 541.722656 L 10.398438 541.722656 C 7.8125 541.722656 5.332031 540.695312 3.503906 538.867188 C 1.679688 537.039062 0.652344 534.5625 0.652344 531.976562 L 0.652344 10.242188 C 0.652344 7.660156 1.679688 5.179688 3.503906 3.351562 C 5.332031 1.523438 7.8125 0.496094 10.398438 0.496094 L 116.367188 0.496094 C 118.953125 0.496094 121.429688 1.523438 123.257812 3.351562 C 125.085938 5.179688 126.113281 7.660156 126.113281 10.242188 L 126.113281 531.976562 C 126.113281 534.5625 125.085938 537.039062 123.257812 538.867188 C 121.429688 540.695312 118.953125 541.722656 116.367188 541.722656 Z M 116.367188 541.722656 " clip-rule="nonzero"/></clipPath><clipPath id="4cfb115afb"><rect x="0" width="127" y="0" height="542"/></clipPath><clipPath id="80fc4eac7b"><path d="M 639.652344 628.605469 L 765.113281 628.605469 L 765.113281 1170.148438 L 639.652344 1170.148438 Z M 639.652344 628.605469 " clip-rule="nonzero"/></clipPath><clipPath id="37790a0fab"><path d="M 755.367188 1170.148438 L 649.398438 1170.148438 C 646.8125 1170.148438 644.332031 1169.121094 642.503906 1167.292969 C 640.679688 1165.464844 639.652344 1162.984375 639.652344 1160.402344 L 639.652344 638.667969 C 639.652344 636.082031 640.679688 633.605469 642.503906 631.777344 C 644.332031 629.949219 646.8125 628.921875 649.398438 628.921875 L 755.367188 628.921875 C 757.953125 628.921875 760.429688 629.949219 762.257812 631.777344 C 764.085938 633.605469 765.113281 636.082031 765.113281 638.667969 L 765.113281 1160.402344 C 765.113281 1162.984375 764.085938 1165.464844 762.257812 1167.292969 C 760.429688 1169.121094 757.953125 1170.148438 755.367188 1170.148438 Z M 755.367188 1170.148438 " clip-rule="nonzero"/></clipPath><clipPath id="66bade1f98"><path d="M 0.652344 1 L 126.113281 1 L 126.113281 542.148438 L 0.652344 542.148438 Z M 0.652344 1 " clip-rule="nonzero"/></clipPath><clipPath id="a82b93f724"><path d="M 116.367188 542.148438 L 10.398438 542.148438 C 7.8125 542.148438 5.332031 541.121094 3.503906 539.292969 C 1.679688 537.464844 0.652344 534.984375 0.652344 532.402344 L 0.652344 10.667969 C 0.652344 8.082031 1.679688 5.605469 3.503906 3.777344 C 5.332031 1.949219 7.8125 0.921875 10.398438 0.921875 L 116.367188 0.921875 C 118.953125 0.921875 121.429688 1.949219 123.257812 3.777344 C 125.085938 5.605469 126.113281 8.082031 126.113281 10.667969 L 126.113281 532.402344 C 126.113281 534.984375 125.085938 537.464844 123.257812 539.292969 C 121.429688 541.121094 118.953125 542.148438 116.367188 542.148438 Z M 116.367188 542.148438 " clip-rule="nonzero"/></clipPath><clipPath id="2d8a457411"><rect x="0" width="127" y="0" height="543"/></clipPath><clipPath id="3af1fecb17"><path d="M 687.890625 630.714844 L 1139.953125 630.714844 L 1139.953125 675.695312 L 687.890625 675.695312 Z M 687.890625 630.714844 " clip-rule="nonzero"/></clipPath><clipPath id="35156b70aa"><path d="M 639.65625 544.539062 L 1133.703125 544.539062 L 1133.703125 594 L 639.65625 594 Z M 639.65625 544.539062 " clip-rule="nonzero"/></clipPath></defs><path fill="#ffffff" d="M 0 0 L 1201 0 L 1201 1210 L 0 1210 Z M 0 0 " fill-opacity="1" fill-rule="nonzero"/><g clip-path="url(#adf6990d00)"><g clip-path="url(#1859e01ec2)"><g transform="matrix(1, 0, 0, 1, 1052, 33)"><g clip-path="url(#0698f707ab)"><g clip-path="url(#5bc2ee37d5)"><g clip-path="url(#a469b79def)"><path fill="#ffffff" d="M 147.09375 116.574219 L 0.0625 116.574219 L 0.0625 0.761719 L 147.09375 0.761719 Z M 147.09375 116.574219 " fill-opacity="1" fill-rule="nonzero"/></g></g></g></g></g></g><g clip-path="url(#d60fd6a218)"><g clip-path="url(#a6ad5f9f67)"><g transform="matrix(1, 0, 0, 1, 0, -0.000000000000183255)"><g clip-path="url(#a5726ab212)"><g clip-path="url(#68fe8b64ba)"><g clip-path="url(#7da2555da5)"><path fill="#de0000" d="M 0 0 L 1200.800781 0 L 1200.800781 1210.183594 L 0 1210.183594 Z M 0 0 " fill-opacity="1" fill-rule="nonzero"/></g></g></g></g></g></g><g clip-path="url(#9d16f65e73)"><g clip-path="url(#36bed742e5)"><g transform="matrix(1, 0, 0, 1, 119, 478)"><g clip-path="url(#2ac8b21e17)"><g clip-path="url(#e8498ae8b5)"><g clip-path="url(#639ec93a79)"><path fill="#ffffff" d="M 0.972656 0.410156 L 148 0.410156 L 148 116.222656 L 0.972656 116.222656 Z M 0.972656 0.410156 " fill-opacity="1" fill-rule="nonzero"/></g></g></g></g></g></g><g clip-path="url(#2cf0f03a09)"><g clip-path="url(#fdf39fe583)"><g transform="matrix(1, 0, 0, 1, 305, 362)"><g clip-path="url(#de135425d0)"><g clip-path="url(#ad66d3dea3)"><g clip-path="url(#c11ba99f68)"><path fill="#ffffff" d="M 0.839844 0.597656 L 138.496094 0.597656 L 138.496094 232.351562 L 0.839844 232.351562 Z M 0.839844 0.597656 " fill-opacity="1" fill-rule="nonzero"/></g></g></g></g></g></g><g clip-path="url(#358a775019)"><g clip-path="url(#af0a42bb3d)"><g transform="matrix(1, 0, 0, 1, 470, 149)"><g clip-path="url(#7fb212ecce)"><g clip-path="url(#6270d0c402)"><g clip-path="url(#2ac975e346)"><path fill="#ffffff" d="M 0.261719 0.953125 L 130.402344 0.953125 L 130.402344 445.257812 L 0.261719 445.257812 Z M 0.261719 0.953125 " fill-opacity="1" fill-rule="nonzero"/></g></g></g></g></g></g><g clip-path="url(#02caf1932e)"><g clip-path="url(#66ab9e88d1)"><g transform="matrix(1, 0, 0, 1, 470, 628)"><g clip-path="url(#75b7347cda)"><g clip-path="url(#6ea37dafe1)"><g clip-path="url(#ea49731d7b)"><path fill="#000000" d="M 133.121094 436.476562 L 0.253906 436.476562 L 0.253906 1.035156 L 133.121094 1.035156 Z M 133.121094 436.476562 " fill-opacity="1" fill-rule="nonzero"/></g></g></g></g></g></g><g clip-path="url(#d0980f9750)"><g clip-path="url(#c6ce4ae213)"><g transform="matrix(1, 0, 0, 1, 305, 628)"><g clip-path="url(#c4990dc067)"><g clip-path="url(#8fe743df49)"><g clip-path="url(#6a196cfcbe)"><path fill="#000000" d="M 138.488281 232.550781 L 0.832031 232.550781 L 0.832031 0.792969 L 138.488281 0.792969 Z M 138.488281 232.550781 " fill-opacity="1" fill-rule="nonzero"/></g></g></g></g></g></g><g clip-path="url(#ee9eea125f)"><g clip-path="url(#a0c94053f5)"><g transform="matrix(1, 0, 0, 1, 119, 628)"><g clip-path="url(#a7b0bb7066)"><g clip-path="url(#e2f0f02ee6)"><g clip-path="url(#e913e701ee)"><path fill="#000000" d="M 147.851562 116.734375 L 0.820312 116.734375 L 0.820312 0.917969 L 147.851562 0.917969 Z M 147.851562 116.734375 " fill-opacity="1" fill-rule="nonzero"/></g></g></g></g></g></g><g clip-path="url(#82a9f7de3c)"><g clip-path="url(#71c67312c0)"><g transform="matrix(1, 0, 0, 1, 639, 48)"><g clip-path="url(#4cfb115afb)"><g clip-path="url(#0355786ea7)"><g clip-path="url(#d7db2d0eb2)"><path fill="#ffffff" d="M 126.113281 541.722656 L 0.652344 541.722656 L 0.652344 0.671875 L 126.113281 0.671875 Z M 126.113281 541.722656 " fill-opacity="1" fill-rule="nonzero"/></g></g></g></g></g></g><g clip-path="url(#80fc4eac7b)"><g clip-path="url(#37790a0fab)"><g transform="matrix(1, 0, 0, 1, 639, 628)"><g clip-path="url(#2d8a457411)"><g clip-path="url(#66bade1f98)"><g clip-path="url(#a82b93f724)"><path fill="#000000" d="M 126.113281 542.148438 L 0.652344 542.148438 L 0.652344 1.09375 L 126.113281 1.09375 Z M 126.113281 542.148438 " fill-opacity="1" fill-rule="nonzero"/></g></g></g></g></g></g><g clip-path="url(#3af1fecb17)"><path fill="#000000" d="M 687.902344 630.714844 L 687.902344 675.695312 L 1139.941406 675.695312 L 1139.941406 630.714844 Z M 687.902344 630.714844 " fill-opacity="1" fill-rule="nonzero"/></g><g clip-path="url(#35156b70aa)"><path fill="#ffffff" d="M 639.679688 544.539062 L 639.679688 593.910156 L 1133.421875 593.910156 L 1133.421875 544.539062 Z M 639.679688 544.539062 " fill-opacity="1" fill-rule="nonzero"/></g></svg>